<svg width="65" height="64" viewBox="0 0 65 64" fill="none" xmlns="http://www.w3.org/2000/svg">
<g id="buildings-2 1">
<g id="Group">
<path id="Vector" d="M18.3666 48H11.5666C7.75331 48 5.83331 46.08 5.83331 42.2667V11.0667C5.83331 7.25333 7.75331 5.33333 11.5666 5.33333H23.0333C26.8466 5.33333 28.7666 7.25333 28.7666 11.0667V16" stroke="#C8C6D0" stroke-width="2" stroke-miterlimit="10" stroke-linecap="round" stroke-linejoin="round" stroke-dasharray="4 4"/>
<path id="Vector_2" d="M36.2333 16V11.0667C36.2333 7.25333 38.1533 5.33333 41.9667 5.33333H53.4333C57.2467 5.33333 59.1667 7.25333 59.1667 11.0667V42.2667C59.1667 46.08 57.2467 48 53.4333 48H46.82" stroke="#C8C6D0" stroke-width="2" stroke-miterlimit="10" stroke-linecap="round" stroke-linejoin="round" stroke-dasharray="4 4"/>
<path id="Vector_3" d="M27.1666 29.3333H37.8333" stroke="#9391A4" stroke-width="2" stroke-miterlimit="10" stroke-linecap="round" stroke-linejoin="round"/>
<path id="Vector_4" d="M27.1666 37.3333H37.8333" stroke="#9391A4" stroke-width="2" stroke-miterlimit="10" stroke-linecap="round" stroke-linejoin="round"/>
<path id="Vector_5" d="M32.5 58.6667V50.6667" stroke="#9391A4" stroke-width="2" stroke-miterlimit="10" stroke-linecap="round" stroke-linejoin="round"/>
<path id="Vector_6" d="M46.82 22.4533V52.2133C46.82 56.5067 44.6866 58.6667 40.3933 58.6667H24.82C20.5266 58.6667 18.3666 56.5067 18.3666 52.2133V22.4533C18.3666 18.16 20.5266 16 24.82 16H40.3933C44.6866 16 46.82 18.16 46.82 22.4533Z" stroke="#9391A4" stroke-width="2" stroke-miterlimit="10" stroke-linecap="round" stroke-linejoin="round"/>
</g>
</g>
</svg>
