<svg width="24" height="24" viewBox="0 0 24 24" fill="none" xmlns="http://www.w3.org/2000/svg">
<g id="profile 1">
<g id="Group">
<path id="Vector" d="M12.1601 10.87C12.0601 10.86 11.9401 10.86 11.8301 10.87C10.6823 10.831 9.59472 10.3468 8.79771 9.51995C8.00069 8.69307 7.55682 7.58844 7.56008 6.43999C7.56008 3.98999 9.54008 1.99999 12.0001 1.99999C12.5825 1.98948 13.1613 2.0938 13.7034 2.30697C14.2455 2.52014 14.7403 2.838 15.1595 3.2424C15.5788 3.6468 15.9143 4.12982 16.1469 4.66388C16.3795 5.19794 16.5046 5.77258 16.5151 6.35499C16.5256 6.9374 16.4213 7.51618 16.2081 8.05828C15.9949 8.60038 15.6771 9.09518 15.2727 9.51444C14.8683 9.9337 14.3852 10.2692 13.8512 10.5018C13.3171 10.7344 12.7425 10.8595 12.1601 10.87Z" stroke="#9391A4" stroke-width="1.5" stroke-linecap="round" stroke-linejoin="round"/>
<path id="Vector_2" d="M7.15997 14.56C4.73997 16.18 4.73997 18.82 7.15997 20.43C9.90997 22.27 14.42 22.27 17.17 20.43C19.59 18.81 19.59 16.17 17.17 14.56C14.43 12.73 9.91997 12.73 7.15997 14.56Z" stroke="#9391A4" stroke-width="1.5" stroke-linecap="round" stroke-linejoin="round"/>
</g>
</g>
</svg>
