<svg width="24" height="25" viewBox="0 0 24 25" fill="none" xmlns="http://www.w3.org/2000/svg">
<g id="slider-horizontal-1 1">
<g id="Group">
<path id="Vector" d="M5 17V8C5 7.38 5.02 6.83 5.09 6.34C5.38 3.71 6.62 3 10 3H14C17.38 3 18.62 3.71 18.91 6.34C18.98 6.83 19 7.38 19 8V17C19 17.62 18.98 18.17 18.91 18.66C18.62 21.29 17.38 22 14 22H10C6.62 22 5.38 21.29 5.09 18.66C5.02 18.17 5 17.62 5 17Z" stroke="#272343" stroke-width="1.5" stroke-linecap="round" stroke-linejoin="round"/>
<path id="Vector_2" d="M2 20V5" stroke="#272343" stroke-width="1.5" stroke-linecap="round" stroke-linejoin="round"/>
<path id="Vector_3" d="M22 19.5V4.5" stroke="#272343" stroke-width="1.5" stroke-linecap="round" stroke-linejoin="round"/>
</g>
</g>
</svg>
